<svg xmlns="http://www.w3.org/2000/svg" xmlns:xlink="http://www.w3.org/1999/xlink" width="500" zoomAndPan="magnify" viewBox="0 0 375 374.999991" height="500" preserveAspectRatio="xMidYMid meet" version="1.0"><defs><clipPath id="6290e6aa1e"><path d="M 13.6875 0 L 285.3125 0 L 285.3125 374.851562 L 13.6875 374.851562 Z M 13.6875 0 " clip-rule="nonzero"/></clipPath><clipPath id="f9eccd6fa9"><path d="M 149.5 0 L 285.3125 187.496094 L 149.5 374.992188 L 13.6875 187.496094 Z M 149.5 0 " clip-rule="nonzero"/></clipPath><clipPath id="e87c5df38e"><path d="M 85.09375 9.671875 L 213.90625 9.671875 L 213.90625 187.792969 L 85.09375 187.792969 Z M 85.09375 9.671875 " clip-rule="nonzero"/></clipPath><clipPath id="8dbb9aa35e"><path d="M 149.5 9.671875 L 213.90625 98.585938 L 149.5 187.5 L 85.09375 98.585938 Z M 149.5 9.671875 " clip-rule="nonzero"/></clipPath><clipPath id="ad7bb9e9f7"><path d="M 0.09375 0.671875 L 128.90625 0.671875 L 128.90625 178.679688 L 0.09375 178.679688 Z M 0.09375 0.671875 " clip-rule="nonzero"/></clipPath><clipPath id="7387371ceb"><path d="M 64.5 0.671875 L 128.90625 89.585938 L 64.5 178.5 L 0.09375 89.585938 Z M 64.5 0.671875 " clip-rule="nonzero"/></clipPath><clipPath id="f01112d9ea"><rect x="0" width="129" y="0" height="179"/></clipPath><clipPath id="006a82e442"><path d="M 85.097656 9.671875 L 213.667969 9.671875 L 213.667969 187.140625 L 85.097656 187.140625 Z M 85.097656 9.671875 " clip-rule="nonzero"/></clipPath><clipPath id="2d95109624"><path d="M 149.496094 9.671875 L 213.890625 98.574219 L 149.496094 187.476562 L 85.097656 98.574219 Z M 149.496094 9.671875 " clip-rule="nonzero"/></clipPath><clipPath id="89c99fb7ed"><path d="M 20.691406 98.585938 L 149.5 98.585938 L 149.5 276.707031 L 20.691406 276.707031 Z M 20.691406 98.585938 " clip-rule="nonzero"/></clipPath><clipPath id="f0152c8332"><path d="M 85.09375 98.585938 L 149.5 187.5 L 85.09375 276.414062 L 20.691406 187.5 Z M 85.09375 98.585938 " clip-rule="nonzero"/></clipPath><clipPath id="92e751d908"><path d="M 0.691406 0.585938 L 129.5 0.585938 L 129.5 178.480469 L 0.691406 178.480469 Z M 0.691406 0.585938 " clip-rule="nonzero"/></clipPath><clipPath id="60ee6779a8"><path d="M 65.09375 0.585938 L 129.5 89.5 L 65.09375 178.414062 L 0.691406 89.5 Z M 65.09375 0.585938 " clip-rule="nonzero"/></clipPath><clipPath id="1121e75617"><rect x="0" width="130" y="0" height="179"/></clipPath><clipPath id="70aa63e2d6"><path d="M 20.695312 98.585938 L 149.261719 98.585938 L 149.261719 276.050781 L 20.695312 276.050781 Z M 20.695312 98.585938 " clip-rule="nonzero"/></clipPath><clipPath id="cb75a46018"><path d="M 85.089844 98.585938 L 149.488281 187.488281 L 85.089844 276.390625 L 20.695312 187.488281 Z M 85.089844 98.585938 " clip-rule="nonzero"/></clipPath><clipPath id="e06f060ae6"><path d="M 149.5 98.585938 L 278.308594 98.585938 L 278.308594 276.707031 L 149.5 276.707031 Z M 149.5 98.585938 " clip-rule="nonzero"/></clipPath><clipPath id="12ebc4443a"><path d="M 213.90625 98.585938 L 278.308594 187.5 L 213.90625 276.414062 L 149.5 187.5 Z M 213.90625 98.585938 " clip-rule="nonzero"/></clipPath><clipPath id="5b7ff8c6fe"><path d="M 0.5 0.585938 L 129.308594 0.585938 L 129.308594 178.480469 L 0.5 178.480469 Z M 0.5 0.585938 " clip-rule="nonzero"/></clipPath><clipPath id="e58f085a02"><path d="M 64.90625 0.585938 L 129.308594 89.5 L 64.90625 178.414062 L 0.5 89.5 Z M 64.90625 0.585938 " clip-rule="nonzero"/></clipPath><clipPath id="1ef9a305da"><rect x="0" width="130" y="0" height="179"/></clipPath><clipPath id="891fb09b18"><path d="M 149.503906 98.585938 L 278.070312 98.585938 L 278.070312 276.050781 L 149.503906 276.050781 Z M 149.503906 98.585938 " clip-rule="nonzero"/></clipPath><clipPath id="09d9fa5e0d"><path d="M 213.898438 98.585938 L 278.296875 187.488281 L 213.898438 276.390625 L 149.503906 187.488281 Z M 213.898438 98.585938 " clip-rule="nonzero"/></clipPath><clipPath id="513132d6fb"><path d="M 85.09375 187.5 L 213.90625 187.5 L 213.90625 365.617188 L 85.09375 365.617188 Z M 85.09375 187.5 " clip-rule="nonzero"/></clipPath><clipPath id="2e17a88092"><path d="M 149.5 187.5 L 213.90625 276.414062 L 149.5 365.328125 L 85.09375 276.414062 Z M 149.5 187.5 " clip-rule="nonzero"/></clipPath><clipPath id="0be46dc866"><path d="M 0.09375 0.5 L 128.90625 0.5 L 128.90625 178.519531 L 0.09375 178.519531 Z M 0.09375 0.5 " clip-rule="nonzero"/></clipPath><clipPath id="e1e2e05071"><path d="M 64.5 0.5 L 128.90625 89.414062 L 64.5 178.328125 L 0.09375 89.414062 Z M 64.5 0.5 " clip-rule="nonzero"/></clipPath><clipPath id="396e1509a8"><rect x="0" width="129" y="0" height="179"/></clipPath><clipPath id="d4db17fe49"><path d="M 85.097656 187.5 L 213.667969 187.5 L 213.667969 364.964844 L 85.097656 364.964844 Z M 85.097656 187.5 " clip-rule="nonzero"/></clipPath><clipPath id="9299c36feb"><path d="M 149.496094 187.5 L 213.890625 276.402344 L 149.496094 365.304688 L 85.097656 276.402344 Z M 149.496094 187.5 " clip-rule="nonzero"/></clipPath><clipPath id="59a1d6619f"><rect x="0" width="299" y="0" height="375"/></clipPath></defs><g transform="matrix(1, 0, 0, 1, 38, 0)"><g clip-path="url(#59a1d6619f)"><g clip-path="url(#6290e6aa1e)"><g clip-path="url(#f9eccd6fa9)"><path stroke-linecap="butt" transform="matrix(1.810875, 0, 0, 1.810875, 13.686943, 0.000000000000025734)" fill="none" stroke-linejoin="miter" d="M 74.998564 -0.000000000000014211 L 149.99682 103.538924 L 74.998564 207.077848 L 0.000307439 103.538924 Z M 74.998564 -0.000000000000014211 " stroke="#124170" stroke-width="3.313314" stroke-opacity="1" stroke-miterlimit="4"/></g></g><g clip-path="url(#e87c5df38e)"><g clip-path="url(#8dbb9aa35e)"><g transform="matrix(1, 0, 0, 1, 85, 9)"><g clip-path="url(#f01112d9ea)"><g clip-path="url(#ad7bb9e9f7)"><g clip-path="url(#7387371ceb)"><path fill="#ffffff" d="M 0.09375 0.671875 L 128.90625 0.671875 L 128.90625 178.289062 L 0.09375 178.289062 Z M 0.09375 0.671875 " fill-opacity="1" fill-rule="nonzero"/></g></g></g></g></g></g><g clip-path="url(#006a82e442)"><g clip-path="url(#2d95109624)"><path stroke-linecap="butt" transform="matrix(1.810875, 0, 0, 1.810875, 85.098096, 9.673108)" fill="none" stroke-linejoin="miter" d="M 35.561804 -0.000680845 L 71.121694 49.092891 L 35.561804 98.186463 L -0.000243068 49.092891 Z M 35.561804 -0.000680845 " stroke="#124170" stroke-width="3.313314" stroke-opacity="1" stroke-miterlimit="4"/></g></g><g clip-path="url(#89c99fb7ed)"><g clip-path="url(#f0152c8332)"><g transform="matrix(1, 0, 0, 1, 20, 98)"><g clip-path="url(#1121e75617)"><g clip-path="url(#92e751d908)"><g clip-path="url(#60ee6779a8)"><path fill="#e11d1e" d="M 0.691406 0.585938 L 129.5 0.585938 L 129.5 178.203125 L 0.691406 178.203125 Z M 0.691406 0.585938 " fill-opacity="1" fill-rule="nonzero"/></g></g></g></g></g></g><g clip-path="url(#70aa63e2d6)"><g clip-path="url(#cb75a46018)"><path stroke-linecap="butt" transform="matrix(1.810875, 0, 0, 1.810875, 20.69362, 98.586534)" fill="none" stroke-linejoin="miter" d="M 35.560825 -0.000329137 L 71.122872 49.093243 L 35.560825 98.186815 L 0.000934672 49.093243 Z M 35.560825 -0.000329137 " stroke="#124170" stroke-width="3.313314" stroke-opacity="1" stroke-miterlimit="4"/></g></g><g clip-path="url(#e06f060ae6)"><g clip-path="url(#12ebc4443a)"><g transform="matrix(1, 0, 0, 1, 149, 98)"><g clip-path="url(#1ef9a305da)"><g clip-path="url(#5b7ff8c6fe)"><g clip-path="url(#e58f085a02)"><path fill="#e11d1e" d="M 0.5 0.585938 L 129.308594 0.585938 L 129.308594 178.203125 L 0.5 178.203125 Z M 0.5 0.585938 " fill-opacity="1" fill-rule="nonzero"/></g></g></g></g></g></g><g clip-path="url(#891fb09b18)"><g clip-path="url(#09d9fa5e0d)"><path stroke-linecap="butt" transform="matrix(1.810875, 0, 0, 1.810875, 149.50257, 98.586534)" fill="none" stroke-linejoin="miter" d="M 35.560628 -0.000329137 L 71.122675 49.093243 L 35.560628 98.186815 L 0.00073802 49.093243 Z M 35.560628 -0.000329137 " stroke="#124170" stroke-width="3.313314" stroke-opacity="1" stroke-miterlimit="4"/></g></g><g clip-path="url(#513132d6fb)"><g clip-path="url(#2e17a88092)"><g transform="matrix(1, 0, 0, 1, 85, 187)"><g clip-path="url(#396e1509a8)"><g clip-path="url(#0be46dc866)"><g clip-path="url(#e1e2e05071)"><path fill="#ddf4e7" d="M 0.09375 0.5 L 128.90625 0.5 L 128.90625 178.117188 L 0.09375 178.117188 Z M 0.09375 0.5 " fill-opacity="1" fill-rule="nonzero"/></g></g></g></g></g></g><g clip-path="url(#d4db17fe49)"><g clip-path="url(#9299c36feb)"><path stroke-linecap="butt" transform="matrix(1.810875, 0, 0, 1.810875, 85.098096, 187.499959)" fill="none" stroke-linejoin="miter" d="M 35.561804 0.0000227031 L 71.121694 49.093595 L 35.561804 98.187167 L -0.000243068 49.093595 Z M 35.561804 0.0000227031 " stroke="#124170" stroke-width="3.313314" stroke-opacity="1" stroke-miterlimit="4"/></g></g></g></g></svg>