<svg xmlns="http://www.w3.org/2000/svg" xmlns:xlink="http://www.w3.org/1999/xlink" width="500" zoomAndPan="magnify" viewBox="0 0 375 374.999991" height="500" preserveAspectRatio="xMidYMid meet" version="1.0"><defs><g/><clipPath id="1ff6c15d3c"><path d="M 104.886719 0 L 269.886719 0 L 269.886719 228 L 104.886719 228 Z M 104.886719 0 " clip-rule="nonzero"/></clipPath><clipPath id="a73bda22c5"><path d="M 187.496094 0 L 270.105469 114.046875 L 187.496094 228.09375 L 104.886719 114.046875 Z M 187.496094 0 " clip-rule="nonzero"/></clipPath><clipPath id="a675b894db"><path d="M 148.324219 5.882812 L 226.675781 5.882812 L 226.675781 114.230469 L 148.324219 114.230469 Z M 148.324219 5.882812 " clip-rule="nonzero"/></clipPath><clipPath id="cbc0f377d4"><path d="M 187.5 5.882812 L 226.675781 59.96875 L 187.5 114.050781 L 148.324219 59.96875 Z M 187.5 5.882812 " clip-rule="nonzero"/></clipPath><clipPath id="e1afaa0b0d"><path d="M 0.324219 0.882812 L 78.675781 0.882812 L 78.675781 109 L 0.324219 109 Z M 0.324219 0.882812 " clip-rule="nonzero"/></clipPath><clipPath id="dc54529753"><path d="M 39.5 0.882812 L 78.675781 54.96875 L 39.5 109.050781 L 0.324219 54.96875 Z M 39.5 0.882812 " clip-rule="nonzero"/></clipPath><clipPath id="8ec1bf2db8"><rect x="0" width="79" y="0" height="110"/></clipPath><clipPath id="77ff9b6cd2"><path d="M 148.324219 5.882812 L 226.324219 5.882812 L 226.324219 113.882812 L 148.324219 113.882812 Z M 148.324219 5.882812 " clip-rule="nonzero"/></clipPath><clipPath id="b352265b8a"><path d="M 187.5 5.882812 L 226.675781 59.964844 L 187.5 114.046875 L 148.324219 59.964844 Z M 187.5 5.882812 " clip-rule="nonzero"/></clipPath><clipPath id="eb1a4675e4"><path d="M 109.148438 59.96875 L 187.5 59.96875 L 187.5 168.3125 L 109.148438 168.3125 Z M 109.148438 59.96875 " clip-rule="nonzero"/></clipPath><clipPath id="0aab2ccd29"><path d="M 148.324219 59.96875 L 187.5 114.050781 L 148.324219 168.136719 L 109.148438 114.050781 Z M 148.324219 59.96875 " clip-rule="nonzero"/></clipPath><clipPath id="226852f09e"><path d="M 0.148438 0.96875 L 78.5 0.96875 L 78.5 109.238281 L 0.148438 109.238281 Z M 0.148438 0.96875 " clip-rule="nonzero"/></clipPath><clipPath id="0b3169ba28"><path d="M 39.324219 0.96875 L 78.5 55.050781 L 39.324219 109.136719 L 0.148438 55.050781 Z M 39.324219 0.96875 " clip-rule="nonzero"/></clipPath><clipPath id="b3f22a75f0"><rect x="0" width="79" y="0" height="110"/></clipPath><clipPath id="6a3a83d3c2"><path d="M 109.148438 59.96875 L 187.148438 59.96875 L 187.148438 167.96875 L 109.148438 167.96875 Z M 109.148438 59.96875 " clip-rule="nonzero"/></clipPath><clipPath id="3b020bf709"><path d="M 148.324219 59.96875 L 187.5 114.050781 L 148.324219 168.132812 L 109.148438 114.050781 Z M 148.324219 59.96875 " clip-rule="nonzero"/></clipPath><clipPath id="4861c8871d"><path d="M 187.5 59.96875 L 265.851562 59.96875 L 265.851562 168.3125 L 187.5 168.3125 Z M 187.5 59.96875 " clip-rule="nonzero"/></clipPath><clipPath id="3f5c0b63c1"><path d="M 226.675781 59.96875 L 265.851562 114.050781 L 226.675781 168.136719 L 187.5 114.050781 Z M 226.675781 59.96875 " clip-rule="nonzero"/></clipPath><clipPath id="1dae9089ea"><path d="M 0.5 0.96875 L 78.851562 0.96875 L 78.851562 109.238281 L 0.5 109.238281 Z M 0.5 0.96875 " clip-rule="nonzero"/></clipPath><clipPath id="5658a8ce5c"><path d="M 39.675781 0.96875 L 78.851562 55.050781 L 39.675781 109.136719 L 0.5 55.050781 Z M 39.675781 0.96875 " clip-rule="nonzero"/></clipPath><clipPath id="00e4ad5ba3"><rect x="0" width="79" y="0" height="110"/></clipPath><clipPath id="e629b05716"><path d="M 187.5 59.96875 L 265.5 59.96875 L 265.5 167.96875 L 187.5 167.96875 Z M 187.5 59.96875 " clip-rule="nonzero"/></clipPath><clipPath id="f5ec793309"><path d="M 226.675781 59.96875 L 265.851562 114.050781 L 226.675781 168.132812 L 187.5 114.050781 Z M 226.675781 59.96875 " clip-rule="nonzero"/></clipPath><clipPath id="81d693804a"><path d="M 148.324219 114.050781 L 226.675781 114.050781 L 226.675781 222.398438 L 148.324219 222.398438 Z M 148.324219 114.050781 " clip-rule="nonzero"/></clipPath><clipPath id="15283d5b9f"><path d="M 187.5 114.050781 L 226.675781 168.136719 L 187.5 222.222656 L 148.324219 168.136719 Z M 187.5 114.050781 " clip-rule="nonzero"/></clipPath><clipPath id="023ff36c26"><path d="M 0.324219 0.0507812 L 78.675781 0.0507812 L 78.675781 108.238281 L 0.324219 108.238281 Z M 0.324219 0.0507812 " clip-rule="nonzero"/></clipPath><clipPath id="fe6c194847"><path d="M 39.5 0.0507812 L 78.675781 54.136719 L 39.5 108.222656 L 0.324219 54.136719 Z M 39.5 0.0507812 " clip-rule="nonzero"/></clipPath><clipPath id="02f948bcae"><rect x="0" width="79" y="0" height="109"/></clipPath><clipPath id="6f314d7f33"><path d="M 148.324219 114.050781 L 226.324219 114.050781 L 226.324219 222.050781 L 148.324219 222.050781 Z M 148.324219 114.050781 " clip-rule="nonzero"/></clipPath><clipPath id="9ede90690c"><path d="M 187.5 114.050781 L 226.675781 168.132812 L 187.5 222.214844 L 148.324219 168.132812 Z M 187.5 114.050781 " clip-rule="nonzero"/></clipPath><clipPath id="4a5da32598"><rect x="0" width="289" y="0" height="124"/></clipPath></defs><g clip-path="url(#1ff6c15d3c)"><g clip-path="url(#a73bda22c5)"><path stroke-linecap="butt" transform="matrix(0.75, 0, 0, 0.75, 104.88749, -0.000000000000042633)" fill="none" stroke-linejoin="miter" d="M 110.144812 0.000000000000056843 L 220.290652 152.06251 L 110.144812 304.12502 L -0.00102888 152.06251 Z M 110.144812 0.000000000000056843 " stroke="#01548a" stroke-width="8" stroke-opacity="1" stroke-miterlimit="4"/></g></g><g clip-path="url(#a675b894db)"><g clip-path="url(#cbc0f377d4)"><g transform="matrix(1, 0, 0, 1, 148, 5)"><g clip-path="url(#8ec1bf2db8)"><g clip-path="url(#e1afaa0b0d)"><g clip-path="url(#dc54529753)"><path fill="#ffffff" d="M 0.324219 0.882812 L 78.675781 0.882812 L 78.675781 108.925781 L 0.324219 108.925781 Z M 0.324219 0.882812 " fill-opacity="1" fill-rule="nonzero"/></g></g></g></g></g></g><g clip-path="url(#77ff9b6cd2)"><g clip-path="url(#b352265b8a)"><path stroke-linecap="butt" transform="matrix(0.75, 0, 0, 0.75, 148.325488, 5.883958)" fill="none" stroke-linejoin="miter" d="M 52.232689 -0.00152725 L 104.467071 72.107857 L 52.232689 144.217241 L -0.00169281 72.107857 Z M 52.232689 -0.00152725 " stroke="#01548a" stroke-width="8" stroke-opacity="1" stroke-miterlimit="4"/></g></g><g clip-path="url(#eb1a4675e4)"><g clip-path="url(#0aab2ccd29)"><g transform="matrix(1, 0, 0, 1, 109, 59)"><g clip-path="url(#b3f22a75f0)"><g clip-path="url(#226852f09e)"><g clip-path="url(#0b3169ba28)"><path fill="#e11d1e" d="M 0.148438 0.96875 L 78.5 0.96875 L 78.5 109.007812 L 0.148438 109.007812 Z M 0.148438 0.96875 " fill-opacity="1" fill-rule="nonzero"/></g></g></g></g></g></g><g clip-path="url(#6a3a83d3c2)"><g clip-path="url(#3b020bf709)"><path stroke-linecap="butt" transform="matrix(0.75, 0, 0, 0.75, 109.149533, 59.968215)" fill="none" stroke-linejoin="miter" d="M 52.232922 0.000712984 L 104.467304 72.110097 L 52.232922 144.219482 L -0.00146004 72.110097 Z M 52.232922 0.000712984 " stroke="#01548a" stroke-width="8" stroke-opacity="1" stroke-miterlimit="4"/></g></g><g clip-path="url(#4861c8871d)"><g clip-path="url(#3f5c0b63c1)"><g transform="matrix(1, 0, 0, 1, 187, 59)"><g clip-path="url(#00e4ad5ba3)"><g clip-path="url(#1dae9089ea)"><g clip-path="url(#5658a8ce5c)"><path fill="#e11d1e" d="M 0.5 0.96875 L 78.851562 0.96875 L 78.851562 109.007812 L 0.5 109.007812 Z M 0.5 0.96875 " fill-opacity="1" fill-rule="nonzero"/></g></g></g></g></g></g><g clip-path="url(#e629b05716)"><g clip-path="url(#f5ec793309)"><path stroke-linecap="butt" transform="matrix(0.75, 0, 0, 0.75, 187.501442, 59.968215)" fill="none" stroke-linejoin="miter" d="M 52.232459 0.000712984 L 104.466841 72.110097 L 52.232459 144.219482 L -0.00192238 72.110097 Z M 52.232459 0.000712984 " stroke="#01548a" stroke-width="8" stroke-opacity="1" stroke-miterlimit="4"/></g></g><g clip-path="url(#81d693804a)"><g clip-path="url(#15283d5b9f)"><g transform="matrix(1, 0, 0, 1, 148, 114)"><g clip-path="url(#02f948bcae)"><g clip-path="url(#023ff36c26)"><g clip-path="url(#fe6c194847)"><path fill="#ddf4e7" d="M 0.324219 0.0507812 L 78.675781 0.0507812 L 78.675781 108.09375 L 0.324219 108.09375 Z M 0.324219 0.0507812 " fill-opacity="1" fill-rule="nonzero"/></g></g></g></g></g></g><g clip-path="url(#6f314d7f33)"><g clip-path="url(#9ede90690c)"><path stroke-linecap="butt" transform="matrix(0.75, 0, 0, 0.75, 148.325488, 114.052478)" fill="none" stroke-linejoin="miter" d="M 52.232689 -0.00226248 L 104.467071 72.107122 L 52.232689 144.216506 L -0.00169281 72.107122 Z M 52.232689 -0.00226248 " stroke="#01548a" stroke-width="8" stroke-opacity="1" stroke-miterlimit="4"/></g></g><g transform="matrix(1, 0, 0, 1, 43, 251)"><g clip-path="url(#4a5da32598)"><g fill="#e11d1e" fill-opacity="1"><g transform="translate(17.876905, 53.208975)"><g><path d="M 43.59375 0 L 41.296875 -28.734375 L 41 -28.734375 L 31.078125 -0.296875 L 24.5 -0.296875 L 14.5625 -28.734375 L 14.28125 -28.734375 L 11.984375 0 L 0.9375 0 L 5.28125 -48.46875 L 17.03125 -48.46875 L 27.78125 -20.5 L 38.546875 -48.46875 L 50.296875 -48.46875 L 54.640625 0 Z M 43.59375 0 "/></g></g></g><g fill="#e11d1e" fill-opacity="1"><g transform="translate(73.446701, 53.208975)"><g><path d="M 28.140625 -48.46875 L 47.703125 0 L 35.84375 0 L 32.25 -9.6875 L 13.8125 -9.6875 L 10.21875 0 L -1.640625 0 L 17.921875 -48.46875 Z M 28.5 -19.390625 L 23.09375 -33.484375 L 22.96875 -33.484375 L 17.5625 -19.390625 Z M 28.5 -19.390625 "/></g></g></g><g fill="#e11d1e" fill-opacity="1"><g transform="translate(119.500329, 53.208975)"><g><path d="M 14.5625 -48.46875 L 14.5625 -9.6875 L 31.25 -9.6875 L 31.25 0 L 3.53125 0 L 3.53125 -48.46875 Z M 14.5625 -48.46875 "/></g></g></g><g fill="#e11d1e" fill-opacity="1"><g transform="translate(152.68948, 53.208975)"><g><path d="M 14.5625 -48.46875 L 14.5625 -9.6875 L 31.25 -9.6875 L 31.25 0 L 3.53125 0 L 3.53125 -48.46875 Z M 14.5625 -48.46875 "/></g></g></g><g fill="#e11d1e" fill-opacity="1"><g transform="translate(186.7598, 53.208975)"><g><path d="M 28.140625 -48.46875 L 47.703125 0 L 35.84375 0 L 32.25 -9.6875 L 13.8125 -9.6875 L 10.21875 0 L -1.640625 0 L 17.921875 -48.46875 Z M 28.5 -19.390625 L 23.09375 -33.484375 L 22.96875 -33.484375 L 17.5625 -19.390625 Z M 28.5 -19.390625 "/></g></g></g><g fill="#e11d1e" fill-opacity="1"><g transform="translate(231.638542, 53.208975)"><g><path d="M 21.390625 -49.34375 C 24.015625 -49.34375 26.578125 -48.960938 29.078125 -48.203125 C 31.585938 -47.441406 33.445312 -46.6875 34.65625 -45.9375 L 36.421875 -44.765625 L 31.953125 -35.953125 C 31.609375 -36.191406 31.117188 -36.492188 30.484375 -36.859375 C 29.859375 -37.234375 28.679688 -37.734375 26.953125 -38.359375 C 25.234375 -38.984375 23.632812 -39.296875 22.15625 -39.296875 C 20.3125 -39.296875 18.890625 -38.90625 17.890625 -38.125 C 16.890625 -37.34375 16.390625 -36.285156 16.390625 -34.953125 C 16.390625 -34.285156 16.625 -33.664062 17.09375 -33.09375 C 17.5625 -32.53125 18.363281 -31.925781 19.5 -31.28125 C 20.632812 -30.632812 21.632812 -30.113281 22.5 -29.71875 C 23.363281 -29.332031 24.695312 -28.75 26.5 -27.96875 C 29.632812 -26.632812 32.304688 -24.820312 34.515625 -22.53125 C 36.722656 -20.238281 37.828125 -17.644531 37.828125 -14.75 C 37.828125 -11.96875 37.328125 -9.535156 36.328125 -7.453125 C 35.335938 -5.378906 33.96875 -3.753906 32.21875 -2.578125 C 30.476562 -1.410156 28.550781 -0.546875 26.4375 0.015625 C 24.320312 0.585938 22.03125 0.875 19.5625 0.875 C 17.445312 0.875 15.367188 0.660156 13.328125 0.234375 C 11.296875 -0.191406 9.59375 -0.726562 8.21875 -1.375 C 6.851562 -2.019531 5.617188 -2.65625 4.515625 -3.28125 C 3.421875 -3.914062 2.617188 -4.445312 2.109375 -4.875 L 1.34375 -5.515625 L 6.875 -14.8125 C 7.34375 -14.414062 7.988281 -13.910156 8.8125 -13.296875 C 9.632812 -12.691406 11.09375 -11.878906 13.1875 -10.859375 C 15.28125 -9.847656 17.128906 -9.34375 18.734375 -9.34375 C 23.398438 -9.34375 25.734375 -10.925781 25.734375 -14.09375 C 25.734375 -14.757812 25.566406 -15.375 25.234375 -15.9375 C 24.898438 -16.507812 24.3125 -17.078125 23.46875 -17.640625 C 22.625 -18.210938 21.878906 -18.664062 21.234375 -19 C 20.585938 -19.332031 19.53125 -19.84375 18.0625 -20.53125 C 16.59375 -21.21875 15.507812 -21.738281 14.8125 -22.09375 C 11.875 -23.539062 9.597656 -25.347656 7.984375 -27.515625 C 6.378906 -29.691406 5.578125 -32.035156 5.578125 -34.546875 C 5.578125 -38.890625 7.179688 -42.441406 10.390625 -45.203125 C 13.609375 -47.960938 17.273438 -49.34375 21.390625 -49.34375 Z M 21.390625 -49.34375 "/></g></g></g><g fill="#01548a" fill-opacity="1"><g transform="translate(3.333408, 104.980382)"><g><path d="M 28.140625 -48.46875 L 47.703125 0 L 35.84375 0 L 32.25 -9.6875 L 13.8125 -9.6875 L 10.21875 0 L -1.640625 0 L 17.921875 -48.46875 Z M 28.5 -19.390625 L 23.09375 -33.484375 L 22.96875 -33.484375 L 17.5625 -19.390625 Z M 28.5 -19.390625 "/></g></g></g><g fill="#01548a" fill-opacity="1"><g transform="translate(46.567318, 104.980382)"><g><path d="M 0.46875 -38.78125 L 0.46875 -48.46875 L 34.546875 -48.46875 L 34.546875 -38.78125 L 23.03125 -38.78125 L 23.03125 0 L 11.984375 0 L 11.984375 -38.78125 Z M 0.46875 -38.78125 "/></g></g></g><g fill="#01548a" fill-opacity="1"><g transform="translate(81.577465, 104.980382)"><g><path d="M 14.5625 -48.46875 L 14.5625 -9.6875 L 31.25 -9.6875 L 31.25 0 L 3.53125 0 L 3.53125 -48.46875 Z M 14.5625 -48.46875 "/></g></g></g><g fill="#01548a" fill-opacity="1"><g transform="translate(115.647785, 104.980382)"><g><path d="M 28.140625 -48.46875 L 47.703125 0 L 35.84375 0 L 32.25 -9.6875 L 13.8125 -9.6875 L 10.21875 0 L -1.640625 0 L 17.921875 -48.46875 Z M 28.5 -19.390625 L 23.09375 -33.484375 L 22.96875 -33.484375 L 17.5625 -19.390625 Z M 28.5 -19.390625 "/></g></g></g><g fill="#01548a" fill-opacity="1"><g transform="translate(161.701413, 104.980382)"><g><path d="M 14.5625 -30.078125 L 14.5625 0 L 3.53125 0 L 3.53125 -48.46875 L 14.5625 -48.46875 L 33.84375 -18.390625 L 33.953125 -18.390625 L 33.953125 -48.46875 L 45 -48.46875 L 45 0 L 33.953125 0 L 14.6875 -30.078125 Z M 14.5625 -30.078125 "/></g></g></g><g fill="#01548a" fill-opacity="1"><g transform="translate(207.402479, 104.980382)"><g><path d="M 0.46875 -38.78125 L 0.46875 -48.46875 L 34.546875 -48.46875 L 34.546875 -38.78125 L 23.03125 -38.78125 L 23.03125 0 L 11.984375 0 L 11.984375 -38.78125 Z M 0.46875 -38.78125 "/></g></g></g><g fill="#01548a" fill-opacity="1"><g transform="translate(239.592907, 104.980382)"><g><path d="M 28.140625 -48.46875 L 47.703125 0 L 35.84375 0 L 32.25 -9.6875 L 13.8125 -9.6875 L 10.21875 0 L -1.640625 0 L 17.921875 -48.46875 Z M 28.5 -19.390625 L 23.09375 -33.484375 L 22.96875 -33.484375 L 17.5625 -19.390625 Z M 28.5 -19.390625 "/></g></g></g></g></g></svg>